<?xml version="1.0" encoding="utf-8"?>
<!-- Generator: Adobe Illustrator 23.0.1, SVG Export Plug-In . SVG Version: 6.00 Build 0)  -->
<svg version="1.1" xmlns="http://www.w3.org/2000/svg" xmlns:xlink="http://www.w3.org/1999/xlink" x="0px" y="0px"
	 viewBox="0 0 474.17 475.79" style="enable-background:new 0 0 474.17 475.79;" xml:space="preserve">
<style type="text/css">
	.st0{fill:#FFFFFF;}
	.st1{fill:#4CAF50;}
	.st2{fill:none;stroke:#FFFFFF;stroke-width:5;stroke-miterlimit:10;}
	.st3{fill:none;stroke:#FFFFFF;stroke-width:10;stroke-miterlimit:10;}
</style>
<g id="Layer_1">
</g>
<g id="Crust">
	<g>
		<path class="st0" d="M238.66,463.63c-59.7,0-115.82-23.25-158.03-65.46c-42.21-42.21-65.46-98.34-65.46-158.04
			S38.42,124.31,80.63,82.09c42.21-42.21,98.33-65.46,158.03-65.46s115.82,23.25,158.03,65.46c42.21,42.21,65.46,98.34,65.46,158.04
			s-23.25,115.82-65.46,158.04S298.36,463.63,238.66,463.63z"/>
		<path class="st1" d="M238.66,20.13c29.7,0,58.51,5.82,85.63,17.29c26.2,11.08,49.72,26.94,69.93,47.15
			c20.21,20.21,36.07,43.74,47.15,69.93c11.47,27.12,17.29,55.93,17.29,85.63s-5.82,58.51-17.29,85.63
			c-11.08,26.2-26.94,49.73-47.15,69.93c-20.21,20.21-43.73,36.07-69.93,47.15c-27.12,11.47-55.93,17.29-85.63,17.29
			s-58.51-5.82-85.63-17.29c-26.2-11.08-49.72-26.94-69.93-47.15c-20.21-20.21-36.07-43.74-47.15-69.93
			c-11.47-27.12-17.29-55.93-17.29-85.63s5.82-58.51,17.29-85.63c11.08-26.2,26.94-49.73,47.15-69.93
			c20.21-20.21,43.73-36.07,69.93-47.15C180.15,25.95,208.96,20.13,238.66,20.13 M238.66,13.13c-125.36,0-226.99,101.63-226.99,227
			s101.63,227,226.99,227s226.99-101.63,226.99-227S364.03,13.13,238.66,13.13L238.66,13.13z"/>
	</g>
</g>
<g id="Base">
	<g>
		<ellipse class="st1" cx="239.16" cy="240.63" rx="195.99" ry="196"/>
		<path class="st1" d="M239.16,45.13c26.39,0,51.99,5.17,76.09,15.36c23.28,9.85,44.19,23.94,62.14,41.9
			c17.95,17.95,32.05,38.86,41.9,62.14c10.19,24.1,15.36,49.7,15.36,76.1c0,26.39-5.17,52-15.36,76.1
			c-9.85,23.28-23.94,44.19-41.9,62.14c-17.95,17.95-38.86,32.05-62.14,41.9c-24.1,10.19-49.7,15.36-76.09,15.36
			s-51.99-5.17-76.09-15.36c-23.28-9.85-44.19-23.94-62.14-41.9c-17.95-17.95-32.05-38.86-41.9-62.14
			c-10.19-24.1-15.36-49.7-15.36-76.1c0-26.39,5.17-52,15.36-76.1c9.85-23.28,23.94-44.19,41.9-62.14
			c17.95-17.95,38.86-32.05,62.14-41.9C187.17,50.3,212.77,45.13,239.16,45.13 M239.16,44.13c-108.52,0-196.49,87.98-196.49,196.5
			s87.97,196.5,196.49,196.5s196.49-87.98,196.49-196.5S347.68,44.13,239.16,44.13L239.16,44.13z"/>
	</g>
	<g>
		<circle class="st0" cx="160.17" cy="164.63" r="16"/>
		<path class="st0" d="M160.17,149.13c8.55,0,15.5,6.95,15.5,15.5s-6.95,15.5-15.5,15.5s-15.5-6.95-15.5-15.5
			S151.62,149.13,160.17,149.13 M160.17,148.13c-9.11,0-16.5,7.39-16.5,16.5s7.39,16.5,16.5,16.5s16.5-7.39,16.5-16.5
			S169.28,148.13,160.17,148.13L160.17,148.13z"/>
	</g>
	<g>
		<circle class="st0" cx="158.17" cy="286.63" r="22"/>
		<path class="st0" d="M158.17,265.13c11.85,0,21.5,9.64,21.5,21.5s-9.64,21.5-21.5,21.5c-11.85,0-21.5-9.64-21.5-21.5
			S146.31,265.13,158.17,265.13 M158.17,264.13c-12.43,0-22.5,10.07-22.5,22.5s10.07,22.5,22.5,22.5c12.43,0,22.5-10.07,22.5-22.5
			S170.59,264.13,158.17,264.13L158.17,264.13z"/>
	</g>
	<g>
		<circle class="st0" cx="315.16" cy="255.63" r="22"/>
		<path class="st0" d="M315.16,234.13c11.85,0,21.5,9.64,21.5,21.5c0,11.86-9.64,21.5-21.5,21.5s-21.5-9.64-21.5-21.5
			C293.66,243.78,303.31,234.13,315.16,234.13 M315.16,233.13c-12.43,0-22.5,10.07-22.5,22.5c0,12.43,10.07,22.5,22.5,22.5
			c12.43,0,22.5-10.07,22.5-22.5C337.66,243.2,327.59,233.13,315.16,233.13L315.16,233.13z"/>
	</g>
	<g>
		<circle class="st0" cx="252.66" cy="373.13" r="13.5"/>
		<path class="st0" d="M252.66,360.13c7.17,0,13,5.83,13,13s-5.83,13-13,13s-13-5.83-13-13S245.5,360.13,252.66,360.13
			 M252.66,359.13c-7.73,0-14,6.27-14,14s6.27,14,14,14s14-6.27,14-14S260.39,359.13,252.66,359.13L252.66,359.13z"/>
	</g>
	<g>
		<path class="st0" d="M268.66,109.63c-8.55,0-15.5-6.95-15.5-15.5s6.95-15.5,15.5-15.5s15.5,6.95,15.5,15.5
			S277.21,109.63,268.66,109.63z"/>
		<path class="st0" d="M268.66,79.13c8.27,0,15,6.73,15,15s-6.73,15-15,15s-15-6.73-15-15S260.39,79.13,268.66,79.13 M268.66,78.13
			c-8.84,0-16,7.16-16,16s7.16,16,16,16s16-7.16,16-16S277.5,78.13,268.66,78.13L268.66,78.13z"/>
	</g>
	<g>
		<path class="st0" d="M354.66,348.63c-6.34,0-11.5-5.16-11.5-11.5s5.16-11.5,11.5-11.5s11.5,5.16,11.5,11.5
			S361,348.63,354.66,348.63z"/>
		<path class="st0" d="M354.66,326.13c6.07,0,11,4.93,11,11s-4.93,11-11,11s-11-4.93-11-11S348.59,326.13,354.66,326.13
			 M354.66,325.13c-6.63,0-12,5.37-12,12s5.37,12,12,12c6.63,0,12-5.37,12-12S361.29,325.13,354.66,325.13L354.66,325.13z"/>
	</g>
	<g>
		<circle class="st0" cx="76.67" cy="218.13" r="9.5"/>
		<path class="st0" d="M76.67,209.13c4.96,0,9,4.04,9,9s-4.04,9-9,9s-9-4.04-9-9S71.71,209.13,76.67,209.13 M76.67,208.13
			c-5.52,0-10,4.48-10,10s4.48,10,10,10s10-4.48,10-10S82.19,208.13,76.67,208.13L76.67,208.13z"/>
	</g>
	<g>
		<path class="st0" d="M143.67,382.63c-9.1,0-16.5-7.4-16.5-16.5s7.4-16.5,16.5-16.5s16.5,7.4,16.5,16.5
			S152.77,382.63,143.67,382.63z"/>
		<path class="st0" d="M143.67,350.13c8.82,0,16,7.18,16,16c0,8.82-7.18,16-16,16s-16-7.18-16-16
			C127.67,357.31,134.85,350.13,143.67,350.13 M143.67,349.13c-9.39,0-17,7.61-17,17s7.61,17,17,17s17-7.61,17-17
			S153.06,349.13,143.67,349.13L143.67,349.13z"/>
	</g>
	<g>
		<g>
			<path class="st0" d="M730.73,293.57C694.75,248.44,657.6,201.24,643.8,144c-0.45-1.88-3.35-1.08-2.89,0.8
				c13.92,57.76,51.4,105.36,87.7,150.89C729.82,297.2,731.93,295.06,730.73,293.57L730.73,293.57z"/>
		</g>
	</g>
	<line class="st2" x1="367.16" y1="-9.37" x2="239.16" y2="232.63"/>
	<line class="st3" x1="561.15" y1="160.63" x2="243.16" y2="232.63"/>
	<g>
		<g>
			<path class="st0" d="M546.6,117.42c1.93,0,1.93-3,0-3C544.67,114.42,544.67,117.42,546.6,117.42L546.6,117.42z"/>
		</g>
	</g>
	<g>
		<g>
			<path class="st0" d="M438.84,43.55c-9.42-3.87-21.37-1.03-29.71,4.1c-1.94,1.19-3.7,2.67-5.58,3.96
				c-0.12,0.08-3.4,2.24-3.45,2.13c-0.62-1.4,10.6-2.02,6.76-2.17c-2.92-0.11,6.46,1.98,1.32,0.11c-1.34-0.49-2.75-0.81-4.09-1.29
				c-0.93-0.33-3.59-0.78-4.23-1.6c3.33,1.44,4.07,1.76,2.21,0.94c-0.84-0.37-1.68-0.74-2.52-1.13c-6.13-2.83-12-6.14-17.68-9.79
				c-4.54,16.77-9.08,33.54-13.63,50.31c2.93-0.05,2.01-0.25-2.74-0.6c-4.07-1.95-4.85-2.24-2.34-0.87
				c-6.21-4.37-2.25-1.56-0.73-0.24c1.77,2.06,1.39,1.51-1.14-1.66c0.66,0.91,1.31,1.82,1.96,2.74c0.98,1.36,1.98,2.71,2.99,4.05
				c4.8,6.35,8.96,10.78,15.58,15.38c3.32,2.31,6.94,4.09,10.4,6.16c0.7,0.4,1.38,0.83,2.05,1.27c2.32,1.63,1.77,1.2-1.66-1.29
				c0.78,0.73,1.52,1.5,2.21,2.31c-2.37-3.19-2.98-3.94-1.83-2.26c1.94,3.43,3.94,6.79,5.78,10.28c4.42,8.37,8.84,16.74,13.26,25.1
				c7.77-13.54,15.54-27.08,23.31-40.63c-9.98-1.29-20.12-3.26-30.16-3.91c-10.55-0.68-22.27,4.88-27.38,14.43
				c28.42-0.27,37.66-3.23,27.71-8.9c3.22,2.51,3.6,2.79,1.15,0.85c-2.06-1.67-4.14-3.3-6.21-4.95c-2.07-1.65-4.15-3.29-6.21-4.95
				c-0.92-0.74-3.47-3.78-4.51-3.96c2.55,3.64,3.07,4.23,1.55,1.77c-1.23-2.58-0.97-1.89,0.77,2.08c-1.49-3.59-2.84-7.32-4.89-10.65
				c-3.95-6.41-9.92-11.71-16.71-14.9c-0.84-0.4-4.62-2.7-5.39-2.49c3.31,2.9,3.94,3.37,1.89,1.43c4.79,5.27,6.42,11.41,4.9,18.43
				c-17.36,0-34.71,0-52.07,0c0.7,2.72,0.56,1.41-0.41-3.94c-0.09,2.76,0.13,1.45,0.64-3.94c-0.16,0.73-0.36,1.45-0.6,2.16
				c-0.95,2.53-0.49,1.45,1.38-3.22c-1.54,2.32-2.77,5.04-4.16,7.47c-4.69,8.21-8.61,17.51-7.89,27.17
				c0.99,13.3,7.99,22.61,17.83,30.96c7.95,6.75,16.15,13.53,25.16,18.84c34.2,20.15,75.99,20.25,111.46,3.68
				c12.83-5.99,17.09-25.46,9.69-36.94c-8.52-13.22-23.21-16.1-36.94-9.69c-4.83,2.26,6.1-2.27-0.15,0.09
				c-1.74,0.66-3.5,1.26-5.27,1.81c-3.05,0.93-6.14,1.7-9.27,2.3c-1.04,0.2-2.09,0.38-3.14,0.54c4.29-0.54,5.36-0.68,3.23-0.44
				c-1.85,0.16-3.7,0.36-5.56,0.45c-3.19,0.16-6.38,0.15-9.56-0.01c-1.59-0.08-3.18-0.26-4.77-0.37c-5.42-0.4,6.76,1.17,0.08-0.06
				c-3.4-0.62-6.76-1.43-10.06-2.43c-1.52-0.46-3.04-0.97-4.53-1.51c-1-0.36-1.99-0.74-2.97-1.14c3.75,1.62,4.68,2,2.8,1.14
				c-3.1-1.56-6.18-3.05-9.13-4.87c-1.5-0.92-2.98-1.9-4.43-2.9c-0.8-0.55-3.94-2.09-4.29-3.11c3.13,2.43,3.56,2.75,1.29,0.95
				c-0.69-0.55-1.37-1.11-2.05-1.68c-1.59-1.31-3.16-2.65-4.73-3.99c-1.26-1.08-2.56-2.14-3.79-3.26c-0.74-0.64-1.43-1.32-2.09-2.05
				c0.85,1.03,1.7,2.07,2.56,3.1c1.77,2.94,2.62,6.13,2.54,9.56c0.02-1.88-0.11-1.37-0.38,1.53c-1.04,7.3,0.44-0.74,0.56-0.56
				c0.45,0.68-3.42,7.27-0.73,2.25c0.57-1.07,1.19-2.12,1.8-3.18c1.42-2.46,2.86-4.9,4.04-7.48c4.67-10.22,7-20.4,3.93-31.59
				c-3.02-11.01-14.29-20.35-26.04-19.82c-12.09,0.54-22.53,8.03-26.04,19.82c-5.1,17.15,4.93,35.14,20.7,42.41
				c1.79,0.83,3.57,1.69,5.36,2.52c0.41,0.26,0.82,0.51,1.23,0.77c-2.35-1.26-4.25-3-5.7-5.22c1.24,2.56,0.99,1.86-0.76-2.11
				c1.09,2.65,2.21,5.29,3.36,7.92c1.73,3.46,4.02,6.56,6.61,9.46c5.93,6.66,14.01,11.95,21.01,17.46
				c7.66,6.04,15.5,10.95,25.77,10.8c5.75-0.08,11.17-1.7,16.03-4.72c2.47-1.26,4.53-2.95,6.17-5.08c5.13-6.76,5.61-7.3,1.45-1.63
				c-3.97,2.31-7.94,4.63-11.91,6.94c-0.72,0.27-7.02-0.22-3.9,0.64c1.44,0.4,3.21,0.42,4.71,0.61c2.83,0.37,5.65,0.73,8.48,1.1
				c5.65,0.73,11.31,1.47,16.96,2.2c9.09,1.18,18.98-5.97,23.31-13.37c5.04-8.61,4.56-18.61,0-27.25
				c-10.48-19.84-19.07-42.74-39.18-54.79c-1.85-1.11-3.76-2.11-5.63-3.18c-1.11-0.63-6.85-4.34-3.29-1.88
				c3.39,2.35,0.46-0.09-0.28-0.68c-2.51-2,2.92,4.2,1.07,1.56c-1.28-1.84-2.6-3.66-3.94-5.46c-9.47-12.71-22.21-23.51-39.17-22.71
				c-11.47,0.54-23.33,7.96-26.04,19.82c-2.75,12.07,1.97,23.77,12.41,30.49c5.67,3.65,11.55,6.95,17.68,9.79
				c7.63,3.53,15.72,7.44,24.04,9.05c11.38,2.21,22.66,1.3,32.76-4.92c2.15-1.32,4.1-2.94,6.19-4.36c2.88-1.95,3.69-0.84-2.03,0.33
				c-1.65,0.17-3.31,0.34-4.96,0.51c-5.23-1.15-6.5-1.22-3.8-0.22c6.03,2.48,15.45,0.41,20.81-2.72c5.6-3.28,10.94-9.7,12.41-16.14
				c1.57-6.91,1.23-14.67-2.72-20.81C450.91,49.66,445.72,46.37,438.84,43.55L438.84,43.55z"/>
		</g>
	</g>
	<g>
		<g>
			<path class="st0" d="M460.98,185.08c14.12,0,27.65-12.42,27-27c-0.66-14.63-11.86-27-27-27c-14.12,0-27.65,12.42-27,27
				C434.64,172.71,445.85,185.08,460.98,185.08L460.98,185.08z"/>
		</g>
	</g>
	<g>
		<g>
			<path class="st0" d="M417.1,189.64c14.12,0,27.65-12.42,27-27c-0.66-14.63-11.86-27-27-27c-14.12,0-27.65,12.42-27,27
				C390.75,177.27,401.96,189.64,417.1,189.64L417.1,189.64z"/>
		</g>
	</g>
	<g>
		<g>
			<path class="st0" d="M399.89,188.82c14.12,0,27.65-12.42,27-27c-0.66-14.63-11.86-27-27-27c-14.12,0-27.65,12.42-27,27
				C373.54,176.45,384.75,188.82,399.89,188.82L399.89,188.82z"/>
		</g>
	</g>
	<g>
		<g>
			<path class="st0" d="M394.15,194.56c14.12,0,27.65-12.42,27-27c-0.66-14.63-11.86-27-27-27c-14.12,0-27.65,12.42-27,27
				C367.8,182.19,379.01,194.56,394.15,194.56L394.15,194.56z"/>
		</g>
	</g>
	<g>
		<g>
			<path class="st0" d="M371.2,199.48c14.12,0,27.65-12.42,27-27c-0.66-14.63-11.86-27-27-27c-14.12,0-27.65,12.42-27,27
				C344.85,187.1,356.06,199.48,371.2,199.48L371.2,199.48z"/>
		</g>
	</g>
	<g>
		<g>
			<path class="st0" d="M359.72,205.21c14.12,0,27.65-12.42,27-27c-0.66-14.63-11.86-27-27-27c-14.12,0-27.65,12.42-27,27
				C333.38,192.84,344.59,205.21,359.72,205.21L359.72,205.21z"/>
		</g>
	</g>
	<g>
		<g>
			<path class="st0" d="M372.02,206.03c14.12,0,27.65-12.42,27-27c-0.66-14.63-11.86-27-27-27c-14.12,0-27.65,12.42-27,27
				C345.67,193.66,356.88,206.03,372.02,206.03L372.02,206.03z"/>
		</g>
	</g>
	<g>
		<g>
			<path class="st0" d="M401.53,197.02c14.12,0,27.65-12.42,27-27c-0.66-14.63-11.86-27-27-27c-14.12,0-27.65,12.42-27,27
				C375.18,184.65,386.39,197.02,401.53,197.02L401.53,197.02z"/>
		</g>
	</g>
	<g>
		<g>
			<path class="st0" d="M335.95,212.59c14.12,0,27.65-12.42,27-27c-0.66-14.63-11.86-27-27-27c-14.12,0-27.65,12.42-27,27
				C309.61,200.22,320.82,212.59,335.95,212.59L335.95,212.59z"/>
		</g>
	</g>
	<g>
		<g>
			<path class="st0" d="M312.19,219.15c14.12,0,27.65-12.42,27-27c-0.66-14.63-11.86-27-27-27c-14.12,0-27.65,12.42-27,27
				C285.84,206.78,297.05,219.15,312.19,219.15L312.19,219.15z"/>
		</g>
	</g>
	<g>
		<g>
			<path class="st0" d="M290.05,226.52c14.12,0,27.65-12.42,27-27c-0.66-14.63-11.86-27-27-27c-14.12,0-27.65,12.42-27,27
				C263.71,214.15,274.92,226.52,290.05,226.52L290.05,226.52z"/>
		</g>
	</g>
	<g>
		<g>
			<path class="st0" d="M360.13,189.18c14.12,0,27.65-12.42,27-27c-0.66-14.63-11.86-27-27-27c-14.12,0-27.65,12.42-27,27
				C333.79,176.81,345,189.18,360.13,189.18L360.13,189.18z"/>
		</g>
	</g>
	<g>
		<g>
			<path class="st0" d="M322.02,184.72c14.12,0,27.65-12.42,27-27c-0.66-14.63-11.86-27-27-27c-14.12,0-27.65,12.42-27,27
				C295.68,172.35,306.88,184.72,322.02,184.72L322.02,184.72z"/>
		</g>
	</g>
	<g>
		<g>
			<path class="st0" d="M319.56,170.79c14.12,0,27.65-12.42,27-27c-0.66-14.63-11.86-27-27-27c-14.12,0-27.65,12.42-27,27
				C293.22,158.42,304.43,170.79,319.56,170.79L319.56,170.79z"/>
		</g>
	</g>
	<g>
		<g>
			<path class="st0" d="M321.2,159.31c14.12,0,27.65-12.42,27-27c-0.66-14.63-11.86-27-27-27c-14.12,0-27.65,12.42-27,27
				C294.86,146.94,306.06,159.31,321.2,159.31L321.2,159.31z"/>
		</g>
	</g>
	<g>
		<g>
			<path class="st0" d="M324.48,151.11c14.12,0,27.65-12.42,27-27c-0.66-14.63-11.86-27-27-27c-14.12,0-27.65,12.42-27,27
				C298.13,138.74,309.34,151.11,324.48,151.11L324.48,151.11z"/>
		</g>
	</g>
	<g>
		<g>
			<path class="st0" d="M310.55,187.18c14.12,0,27.65-12.42,27-27c-0.66-14.63-11.86-27-27-27c-14.12,0-27.65,12.42-27,27
				C284.2,174.81,295.41,187.18,310.55,187.18L310.55,187.18z"/>
		</g>
	</g>
	<g>
		<g>
			<path class="st0" d="M311.37,183.08c14.12,0,27.65-12.42,27-27c-0.66-14.63-11.86-27-27-27c-14.12,0-27.65,12.42-27,27
				C285.02,170.71,296.23,183.08,311.37,183.08L311.37,183.08z"/>
		</g>
	</g>
	<g>
		<g>
			<path class="st0" d="M301.53,197.84c14.12,0,27.65-12.42,27-27c-0.66-14.63-11.86-27-27-27c-14.12,0-27.65,12.42-27,27
				C275.19,185.46,286.39,197.84,301.53,197.84L301.53,197.84z"/>
		</g>
	</g>
	<g>
		<g>
			<path class="st0" d="M296.61,206.85c14.12,0,27.65-12.42,27-27c-0.66-14.63-11.86-27-27-27c-14.12,0-27.65,12.42-27,27
				C270.27,194.48,281.48,206.85,296.61,206.85L296.61,206.85z"/>
		</g>
	</g>
	<g>
		<g>
			<path class="st0" d="M368.74,80.62c14.12,0,27.65-12.42,27-27c-0.66-14.63-11.86-27-27-27c-14.12,0-27.65,12.42-27,27
				C342.4,68.25,353.6,80.62,368.74,80.62L368.74,80.62z"/>
		</g>
	</g>
	<g>
		<g>
			<path class="st0" d="M364.64,83.08c14.12,0,27.65-12.42,27-27c-0.66-14.63-11.86-27-27-27c-14.12,0-27.65,12.42-27,27
				C338.3,70.71,349.51,83.08,364.64,83.08L364.64,83.08z"/>
		</g>
	</g>
	<g>
		<g>
			<path class="st0" d="M266.29,226.7c9.65,0,9.67-15,0-15C256.63,211.7,256.62,226.7,266.29,226.7L266.29,226.7z"/>
		</g>
	</g>
	<g>
		<g>
			<path class="st0" d="M261.37,226.7c9.65,0,9.67-15,0-15C251.72,211.7,251.7,226.7,261.37,226.7L261.37,226.7z"/>
		</g>
	</g>
	<g>
		<g>
			<path class="st0" d="M257.27,227.52c9.65,0,9.67-15,0-15C247.62,212.52,247.6,227.52,257.27,227.52L257.27,227.52z"/>
		</g>
	</g>
	<g>
		<g>
			<path class="st0" d="M265.47,219.32c9.65,0,9.67-15,0-15C255.81,204.32,255.8,219.32,265.47,219.32L265.47,219.32z"/>
		</g>
	</g>
	<g>
		<g>
			<path class="st0" d="M265.47,211.94c9.65,0,9.67-15,0-15C255.81,196.94,255.8,211.94,265.47,211.94L265.47,211.94z"/>
		</g>
	</g>
	<g>
		<g>
			<path class="st0" d="M265.47,206.2c9.65,0,9.67-15,0-15C255.81,191.2,255.8,206.2,265.47,206.2L265.47,206.2z"/>
		</g>
	</g>
	<g>
		<g>
			<path class="st0" d="M260.55,221.78c9.65,0,9.67-15,0-15C250.9,206.78,250.88,221.78,260.55,221.78L260.55,221.78z"/>
		</g>
	</g>
	<g>
		<g>
			<path class="st0" d="M260.55,216.04c9.65,0,9.67-15,0-15C250.9,201.04,250.88,216.04,260.55,216.04L260.55,216.04z"/>
		</g>
	</g>
	<g>
		<g>
			<path class="st0" d="M250.71,228.34c9.65,0,9.67-15,0-15C241.06,213.34,241.04,228.34,250.71,228.34L250.71,228.34z"/>
		</g>
	</g>
	<g>
		<g>
			<path class="st0" d="M256.45,220.96c9.65,0,9.67-15,0-15C246.8,205.96,246.78,220.96,256.45,220.96L256.45,220.96z"/>
		</g>
	</g>
	<g>
		<g>
			<path class="st0" d="M272.02,194.73c9.65,0,9.67-15,0-15C262.37,179.73,262.36,194.73,272.02,194.73L272.02,194.73z"/>
		</g>
	</g>
	<g>
		<g>
			<path class="st0" d="M241.7,236.81c5.79,0,5.8-9,0-9C235.91,227.81,235.9,236.81,241.7,236.81L241.7,236.81z"/>
		</g>
	</g>
	<g>
		<g>
			<path class="st0" d="M241.7,237.63c5.79,0,5.8-9,0-9C235.91,228.63,235.9,237.63,241.7,237.63L241.7,237.63z"/>
		</g>
	</g>
	<g>
		<g>
			<path class="st0" d="M334.58,138.62c14.12,0,27.65-12.42,27-27c-0.66-14.63-11.86-27-27-27c-14.12,0-27.65,12.42-27,27
				C308.23,126.25,319.44,138.62,334.58,138.62L334.58,138.62z"/>
		</g>
	</g>
	<g>
		<g>
			<path class="st0" d="M336.76,132.96c14.12,0,27.65-12.42,27-27c-0.66-14.63-11.86-27-27-27c-14.12,0-27.65,12.42-27,27
				C310.41,120.59,321.62,132.96,336.76,132.96L336.76,132.96z"/>
		</g>
	</g>
	<g>
		<g>
			<path class="st0" d="M343.07,121.42c0.15,0,0.29,0,0.44,0c3.72,0.14,7.18-0.63,10.4-2.33c3.35-1.09,6.24-2.95,8.69-5.58
				c2.63-2.45,4.49-5.34,5.58-8.69c1.69-3.22,2.47-6.69,2.33-10.4c-0.32-2.39-0.64-4.79-0.96-7.18c-1.28-4.57-3.6-8.55-6.94-11.91
				c-1.82-1.41-3.64-2.81-5.46-4.22c-4.21-2.44-8.75-3.67-13.63-3.69c-0.15,0-0.29,0-0.44,0c-3.72-0.14-7.18,0.63-10.4,2.33
				c-3.35,1.09-6.24,2.95-8.69,5.58c-2.63,2.45-4.49,5.34-5.58,8.69c-1.69,3.22-2.47,6.69-2.33,10.4c0.32,2.39,0.64,4.79,0.96,7.18
				c1.28,4.57,3.6,8.55,6.94,11.91c1.82,1.41,3.64,2.81,5.46,4.22C333.65,120.17,338.2,121.4,343.07,121.42L343.07,121.42z"/>
		</g>
	</g>
	<g>
		<g>
			<path class="st0" d="M382.72,165.9c1.26,0.35,2.48,0.77,3.69,1.28c-2.15-0.91-4.3-1.81-6.45-2.72c1.79,0.83,3.44,1.81,5.03,2.98
				c-1.82-1.41-3.64-2.81-5.46-4.22c1.81,1.44,3.38,3.01,4.81,4.83c-1.41-1.82-2.81-3.64-4.22-5.46c1.16,1.6,2.12,3.25,2.93,5.06
				c2.6,5.79,10.28,10.8,16.14,12.41c6.46,1.78,15.07,0.98,20.81-2.72c5.77-3.72,10.84-9.25,12.41-16.14
				c0.32-2.39,0.64-4.79,0.96-7.18c-0.02-4.87-1.24-9.42-3.69-13.63c-2.48-5.53-6.59-10.82-11.2-14.75
				c-6.4-5.45-13.23-9.54-21.4-11.81c-6.74-1.87-14.77-0.81-20.81,2.72c-5.6,3.28-10.94,9.7-12.41,16.14
				C360.6,146.98,368.15,161.85,382.72,165.9L382.72,165.9z"/>
		</g>
	</g>
	<g>
		<g>
			<path class="st0" d="M405.56,182.82c14.12,0,27.65-12.42,27-27c-0.66-14.63-11.86-27-27-27c-14.12,0-27.65,12.42-27,27
				C379.21,170.44,390.42,182.82,405.56,182.82L405.56,182.82z"/>
		</g>
	</g>
	<g>
		<g>
			<path class="st0" d="M395.11,193.05c14.12,0,27.65-12.42,27-27c-0.66-14.63-11.86-27-27-27c-14.12,0-27.65,12.42-27,27
				C368.76,180.68,379.97,193.05,395.11,193.05L395.11,193.05z"/>
		</g>
	</g>
	<g>
		<g>
			<path class="st0" d="M316.29,173.24c14.12,0,27.65-12.42,27-27c-0.66-14.63-11.86-27-27-27c-14.12,0-27.65,12.42-27,27
				C289.95,160.86,301.15,173.24,316.29,173.24L316.29,173.24z"/>
		</g>
	</g>
	<g>
		<g>
			<path class="st0" d="M392.38,197.45c14.12,0,27.65-12.42,27-27c-0.66-14.63-11.86-27-27-27c-14.12,0-27.65,12.42-27,27
				C366.04,185.08,377.25,197.45,392.38,197.45L392.38,197.45z"/>
		</g>
	</g>
	<g>
		<g>
			<path class="st0" d="M420.14,176.94c14.12,0,27.65-12.42,27-27c-0.66-14.63-11.86-27-27-27c-14.12,0-27.65,12.42-27,27
				C393.8,164.57,405.01,176.94,420.14,176.94L420.14,176.94z"/>
		</g>
	</g>
	<g>
		<g>
			<path class="st0" d="M427.11,175.2c14.12,0,27.65-12.42,27-27c-0.66-14.63-11.86-27-27-27c-14.12,0-27.65,12.42-27,27
				C400.77,162.82,411.97,175.2,427.11,175.2L427.11,175.2z"/>
		</g>
	</g>
	<g>
		<g>
			<path class="st0" d="M290.54,220.6c14.12,0,27.65-12.42,27-27c-0.66-14.63-11.86-27-27-27c-14.12,0-27.65,12.42-27,27
				C264.19,208.23,275.4,220.6,290.54,220.6L290.54,220.6z"/>
		</g>
	</g>
	<g>
		<g>
			<path class="st0" d="M249.83,234.84c9.65,0,9.67-15,0-15C240.17,219.84,240.16,234.84,249.83,234.84L249.83,234.84z"/>
		</g>
	</g>
	<g>
		<g>
			<path class="st0" d="M417.33,157.94c-4.32-1.14-8.59-2.44-12.78-3.99c-1.42-0.52-2.8-1.14-4.2-1.7
				c-0.62-0.26-1.18-0.61-1.67-1.07c0.36,1.01,0.67,0.83,0.92-0.56c2.52-2.49,4.61-5.92,6.93-8.67c3-3.56,5.99-7.13,8.99-10.69
				c11.56-13.75,23.12-27.5,34.68-41.24c6.15-7.32-4.23-17.94-10.61-10.61c-10.97,12.63-22.44,24.97-32.79,38.11
				c-4.77,6.06-8.94,12.35-12.58,19.16c-1.8,3.36-3.52,6.76-5.37,10.08c-1.29,2.32-3.53,7.91-5.78,9.26
				c1.26-0.34,2.52-0.68,3.79-1.02c1.08-0.02-3.09-2.11-3.79-2.47c-1.56-0.8-3.16-1.5-4.79-2.17c-3.58-1.5-7.23-2.7-11.05-3.46
				c-7.96-1.59-15.76-1.54-23.76-0.24c3.16,2.41,6.33,4.82,9.49,7.23c0.08-8.55,0.16-17.09,0.24-25.64c0.04-4.6,0.09-9.2,0.13-13.81
				c0.04-3.85,0.56-8-0.07-11.8c-1.19-7.17-8.11-10.24-14.77-8.22c-5.96,1.81-10.21,8.05-16.28,8.9c1.33,0,2.66,0,3.99,0
				c0.77,0.57,1.53,1.14,2.3,1.71c0.34,1.26,0.68,2.52,1.02,3.79c-0.26-3.32,2.21-7.66,3.39-10.77c1.61-4.24,3.42-8.38,5.35-12.48
				c-4.66-1.26-9.32-2.52-13.98-3.79c-0.75,10.36-6.13,19.63-10.77,28.67c-5.06,9.87-9.37,19.72-10.47,30.86
				c-0.4,4.04,3.73,7.5,7.5,7.5c4.38,0,7.1-3.45,7.5-7.5c1.01-10.32,6.56-19.6,11.18-28.64c5.02-9.84,9.25-19.76,10.06-30.89
				c0.53-7.25-10.83-10.46-13.98-3.79c-2.22,4.72-4.3,9.5-6.2,14.36c-1.75,4.46-4.13,9.43-4.53,14.26c-0.36,4.4,1.45,8.78,5.7,10.59
				c4.39,1.87,9.4,0.06,13.25-2.29c1.62-0.99,3.11-2.19,4.64-3.32c0.74-0.54,4.84-2.51,4.98-2.92c-1.58-1.36-3.15-2.73-4.73-4.09
				c-0.01,0.66-0.01,1.31-0.02,1.97c-0.27,1.18-0.03,2.73-0.04,3.94c-0.03,2.96-0.05,5.92-0.08,8.88
				c-0.11,11.5-0.21,23.01-0.32,34.51c-0.05,5.3,4.81,7.99,9.49,7.23c11.67-1.89,22.23,1.24,32.34,6.85
				c12.6,6.99,19.21-8.3,24.09-17.49c5.71-10.74,11.73-20.51,19.66-29.77c8.81-10.29,17.76-20.46,26.65-30.68
				c-3.54-3.54-7.07-7.07-10.61-10.61c-14.99,17.82-29.97,35.64-44.96,53.47c-6.11,7.26-14.6,16.45-8.53,26.42
				c5.02,8.24,18.7,10.85,27.24,13.11C422.68,174.88,426.66,160.42,417.33,157.94L417.33,157.94z"/>
		</g>
	</g>
	<g>
		<g>
			<path class="st0" d="M243.28,237.41c3.86,0,3.87-6,0-6C239.42,231.41,239.41,237.41,243.28,237.41L243.28,237.41z"/>
		</g>
	</g>
	<g>
		<g>
			<path class="st0" d="M243.28,237.69c3.86,0,3.87-6,0-6C239.42,231.69,239.41,237.69,243.28,237.69L243.28,237.69z"/>
		</g>
	</g>
	<g>
		<g>
			<path class="st0" d="M239.74,235.92c3.86,0,3.87-6,0-6C235.88,229.92,235.87,235.92,239.74,235.92L239.74,235.92z"/>
		</g>
	</g>
	<g>
		<g>
			<path class="st0" d="M240.11,237.04c3.86,0,3.87-6,0-6C236.25,231.04,236.24,237.04,240.11,237.04L240.11,237.04z"/>
		</g>
	</g>
	<g>
		<g>
			<path class="st0" d="M239.74,236.95c3.86,0,3.87-6,0-6C235.88,230.95,235.87,236.95,239.74,236.95L239.74,236.95z"/>
		</g>
	</g>
	<g>
		<g>
			<path class="st0" d="M240.3,237.97c3.86,0,3.87-6,0-6C236.44,231.97,236.43,237.97,240.3,237.97L240.3,237.97z"/>
		</g>
	</g>
	<g>
		<g>
			<path class="st0" d="M239.65,238.07c3.86,0,3.87-6,0-6C235.78,232.07,235.78,238.07,239.65,238.07L239.65,238.07z"/>
		</g>
	</g>
	<g>
		<g>
			<path class="st0" d="M239.65,237.32c3.86,0,3.87-6,0-6C235.78,231.32,235.78,237.32,239.65,237.32L239.65,237.32z"/>
		</g>
	</g>
	<g>
		<g>
			<path class="st0" d="M239.46,237.04c3.86,0,3.87-6,0-6C235.6,231.04,235.59,237.04,239.46,237.04L239.46,237.04z"/>
		</g>
	</g>
	<g>
		<g>
			<path class="st0" d="M239.46,236.85c3.86,0,3.87-6,0-6C235.6,230.85,235.59,236.85,239.46,236.85L239.46,236.85z"/>
		</g>
	</g>
	<g>
		<g>
			<path class="st0" d="M239.46,236.67c3.86,0,3.87-6,0-6C235.6,230.67,235.59,236.67,239.46,236.67L239.46,236.67z"/>
		</g>
	</g>
	<g>
		<g>
			<path class="st0" d="M241.7,237.97c3.86,0,3.87-6,0-6C237.83,231.97,237.83,237.97,241.7,237.97L241.7,237.97z"/>
		</g>
	</g>
	<g>
		<g>
			<path class="st0" d="M285.79,193.42c-1.46,1.4-2.59,2.87-3.53,4.65c-1.5,2.82,1.43,5.29,4.1,4.1c2.99-1.33,5.98-2.65,8.97-3.98
				c2.77-1.23,1.32-5.7-1.51-5.59c-7.04,0.26-14.15,0.81-21.2,0.64c-3.86-0.1-3.86,5.9,0,6c7.05,0.18,14.16-0.37,21.2-0.64
				c-0.5-1.86-1.01-3.73-1.51-5.59c-2.99,1.33-5.98,2.65-8.97,3.98c1.37,1.37,2.74,2.74,4.1,4.1c0.72-1.35,1.49-2.38,2.6-3.44
				C292.83,194.98,288.58,190.75,285.79,193.42L285.79,193.42z"/>
		</g>
	</g>
	<g>
		<g>
			<path class="st0" d="M266.13,192.49c-1.93,1.56-3.54,4.01-3.25,6.6c0.18,1.55,1.25,3.08,3,3c1.47-0.07,3.19-1.33,3-3
				c-0.03-0.19-0.04-0.37-0.04-0.56c-0.07,0.34-0.07,0.33,0.01-0.03c0.11-0.33,0.11-0.36,0-0.07c0.09-0.17,0.18-0.34,0.28-0.5
				c0.2-0.29,0.22-0.32,0.06-0.09c0.13-0.15,0.26-0.29,0.4-0.43c0.25-0.24,0.51-0.46,0.78-0.68c1.22-0.99,1.11-3.22,0-4.24
				C269.07,191.29,267.43,191.43,266.13,192.49L266.13,192.49z"/>
		</g>
	</g>
</g>
</svg>
